<?xml version="1.0" encoding="UTF-8" standalone="no"?>
<!-- Created with Inkscape (http://www.inkscape.org/) -->

<svg
   width="64pt"
   height="64pt"
   viewBox="0 0 22.577778 22.577778"
   version="1.1"
   id="svg831"
   inkscape:version="1.1.1 (3bf5ae0d25, 2021-09-20)"
   sodipodi:docname="Export - Unblash - 64px.svg"
   inkscape:export-filename="C:\Users\User\Desktop\CARLOS PROJECT\2. FEBRUARI 1\DONE\25 - Dates.png"
   inkscape:export-xdpi="576"
   inkscape:export-ydpi="576"
   xmlns:inkscape="http://www.inkscape.org/namespaces/inkscape"
   xmlns:sodipodi="http://sodipodi.sourceforge.net/DTD/sodipodi-0.dtd"
   xmlns="http://www.w3.org/2000/svg"
   xmlns:svg="http://www.w3.org/2000/svg"
   xmlns:rdf="http://www.w3.org/1999/02/22-rdf-syntax-ns#"
   xmlns:cc="http://creativecommons.org/ns#"
   xmlns:dc="http://purl.org/dc/elements/1.1/">
  <defs
     id="defs825">
    <pattern
       id="EMFhbasepattern"
       patternUnits="userSpaceOnUse"
       width="6"
       height="6"
       x="0"
       y="0" />
    <pattern
       id="EMFhbasepattern-9"
       patternUnits="userSpaceOnUse"
       width="6"
       height="6"
       x="0"
       y="0" />
    <pattern
       id="EMFhbasepattern-0"
       patternUnits="userSpaceOnUse"
       width="6"
       height="6"
       x="0"
       y="0" />
    <pattern
       id="EMFhbasepattern-7"
       patternUnits="userSpaceOnUse"
       width="6"
       height="6"
       x="0"
       y="0" />
    <pattern
       id="EMFhbasepattern-2"
       patternUnits="userSpaceOnUse"
       width="6"
       height="6"
       x="0"
       y="0" />
    <pattern
       id="EMFhbasepattern-98"
       patternUnits="userSpaceOnUse"
       width="6"
       height="6"
       x="0"
       y="0" />
    <pattern
       id="EMFhbasepattern-6"
       patternUnits="userSpaceOnUse"
       width="6"
       height="6"
       x="0"
       y="0" />
    <pattern
       id="EMFhbasepattern-01"
       patternUnits="userSpaceOnUse"
       width="6"
       height="6"
       x="0"
       y="0" />
    <pattern
       id="EMFhbasepattern-07"
       patternUnits="userSpaceOnUse"
       width="6"
       height="6"
       x="0"
       y="0" />
    <pattern
       id="EMFhbasepattern-8"
       patternUnits="userSpaceOnUse"
       width="6"
       height="6"
       x="0"
       y="0" />
    <pattern
       id="EMFhbasepattern-4"
       patternUnits="userSpaceOnUse"
       width="6"
       height="6"
       x="0"
       y="0" />
    <pattern
       id="EMFhbasepattern-40"
       patternUnits="userSpaceOnUse"
       width="6"
       height="6"
       x="0"
       y="0" />
    <pattern
       id="EMFhbasepattern-08"
       patternUnits="userSpaceOnUse"
       width="6"
       height="6"
       x="0"
       y="0" />
    <pattern
       id="EMFhbasepattern-04"
       patternUnits="userSpaceOnUse"
       width="6"
       height="6"
       x="0"
       y="0" />
    <pattern
       id="EMFhbasepattern-014"
       patternUnits="userSpaceOnUse"
       width="6"
       height="6"
       x="0"
       y="0" />
    <pattern
       id="EMFhbasepattern-27"
       patternUnits="userSpaceOnUse"
       width="6"
       height="6"
       x="0"
       y="0" />
    <pattern
       id="EMFhbasepattern-09"
       patternUnits="userSpaceOnUse"
       width="6"
       height="6"
       x="0"
       y="0" />
    <pattern
       id="EMFhbasepattern-5"
       patternUnits="userSpaceOnUse"
       width="6"
       height="6"
       x="0"
       y="0" />
    <pattern
       id="EMFhbasepattern-018"
       patternUnits="userSpaceOnUse"
       width="6"
       height="6"
       x="0"
       y="0" />
  </defs>
  <sodipodi:namedview
     id="base"
     pagecolor="#ffffff"
     bordercolor="#666666"
     borderopacity="1.0"
     inkscape:pageopacity="0.0"
     inkscape:pageshadow="2"
     inkscape:zoom="9.1757813"
     inkscape:cx="42.612175"
     inkscape:cy="42.666667"
     inkscape:document-units="pt"
     inkscape:current-layer="svg831"
     showgrid="false"
     units="pt"
     inkscape:window-width="1920"
     inkscape:window-height="1001"
     inkscape:window-x="-9"
     inkscape:window-y="41"
     inkscape:window-maximized="1"
     inkscape:pagecheckerboard="true"
     inkscape:showpageshadow="false"
     inkscape:object-paths="true"
     inkscape:snap-intersection-paths="true"
     inkscape:snap-smooth-nodes="true"
     inkscape:snap-midpoints="true"
     showguides="true"
     inkscape:snap-bbox="true"
     inkscape:bbox-nodes="true"
     inkscape:snap-nodes="false"
     inkscape:snap-global="true">
    <inkscape:grid
       type="xygrid"
       id="grid1378" />
    <sodipodi:guide
       position="0.97013831,21.607643"
       orientation="78.000048,0"
       id="guide1380"
       inkscape:locked="false" />
    <sodipodi:guide
       position="0.97013831,0.97013129"
       orientation="0,78.000005"
       id="guide1382"
       inkscape:locked="false" />
    <sodipodi:guide
       position="21.607639,0.97013129"
       orientation="-78.000048,0"
       id="guide1384"
       inkscape:locked="false" />
    <sodipodi:guide
       position="21.607639,21.607643"
       orientation="0,-78.000005"
       id="guide1386"
       inkscape:locked="false" />
  </sodipodi:namedview>
  <metadata
     id="metadata828">
    <rdf:RDF>
      <cc:Work
         rdf:about="">
        <dc:format>image/svg+xml</dc:format>
        <dc:type
           rdf:resource="http://purl.org/dc/dcmitype/StillImage" />
      </cc:Work>
    </rdf:RDF>
  </metadata>
  <g
     inkscape:label="Icon"
     inkscape:groupmode="layer"
     id="layer1"
     transform="translate(0,-274.42223)" />
  <path
     id="path4689"
     style="color:#000000;display:inline;fill:#000000;stroke-width:1;stroke-linecap:round;stroke-linejoin:round;-inkscape-stroke:none"
     d="M 11.002099,5.4415903 C 10.437549,4.3106998 9.5378658,3.9650307 8.3086738,4.2653967 8.142966,4.3152644 7.8913282,4.3389255 7.6298011,4.3108474 6.7736122,4.2257281 6.0889354,4.1966942 5.2967282,4.4269995 4.8801596,4.5734799 4.3769323,4.8001128 3.9918896,4.9811608 3.5926435,5.16894 3.1626564,5.5242883 2.8953554,5.8648094 2.6092664,6.2605106 2.2115764,6.5805534 1.7981672,6.813307 1.08679,7.2164904 0.84642995,8.0546984 1.0284942,8.7764557 1.2336729,9.2916023 1.7403612,9.5144924 2.1446816,9.7544298 2.5938423,10.22492 3.035306,10.491182 3.6276873,10.55161 c 0.3494154,-0.0051 0.6936458,-0.09109 0.9334323,-0.16114 0.00101,-6.7e-4 0.00167,-0.0013 0.00269,-0.002 0.092253,-0.02713 0.3438917,-0.05145 0.4257747,-0.04258 0.8994986,0.08034 1.6834169,0.143187 2.5107576,-0.09629 0.416565,-0.146479 0.9191386,-0.3737661 1.3041791,-0.5548276 0.5661086,-0.3062486 0.9352591,-0.6783659 1.310077,-1.1535219 0.156068,-0.1987561 0.604836,-0.5230113 0.886267,-0.6786208 0.177551,-0.1056779 0.204403,-0.2562301 0.267256,-0.4080901 0.5057,0.0057 1.040959,-0.073944 1.488237,-0.1139045 C 11.532954,8.5770188 10.275656,10.010667 8.9636842,11.39991 8.8066916,11.37244 8.624088,11.35311 8.4232774,11.33375 7.8770287,11.24438 7.2925257,11.26856 6.9455148,11.497509 6.5437904,11.755332 6.3096079,12.157244 5.8686314,12.3543 5.1516161,12.624791 4.6139386,12.944435 4.1505712,13.347357 3.6905341,13.747381 3.303744,14.229489 2.8874271,14.827072 c -0.3373553,0.548568 -0.470672,1.054645 -0.5567808,1.653972 -0.098431,0.651862 -0.7339014,1.296629 -0.6812401,1.861619 0.05463,0.480818 0.238616,0.921809 0.5698807,1.25309 0.4346119,0.343248 0.9397407,0.225412 1.4554978,0.28951 0.2496164,0.0725 0.6109881,0.163313 0.9753514,0.155898 0.00101,4e-6 0.00167,4e-6 0.00269,0 0.255707,-0.0063 0.4936992,-0.08157 0.7054781,-0.207647 0.4017202,-0.259222 0.6880368,-0.598331 1.0768822,-0.859411 0.4034531,-0.178372 1.1547411,-0.522491 1.6592125,-0.893472 0.5374404,-0.43543 0.9474838,-1.043675 1.3192479,-1.577335 0.2518853,-0.362246 0.446422,-0.88613 0.507655,-1.314661 0.025686,-0.183187 -0.1018004,-0.352585 -0.2849417,-0.378614 -0.1831889,-0.02569 -0.3525852,0.1018 -0.3786126,0.284943 -0.03951,0.276523 -0.2405458,0.804264 -0.3936781,1.024481 -0.368456,0.528505 -0.7054492,0.993864 -1.1685889,1.421433 -0.4011081,0.294966 -1.1453316,0.651065 -1.5321351,0.822076 -0.4471662,0.231298 -0.7964388,0.733553 -1.1489363,0.893471 -0.3779965,0.1873 -0.7790435,0.07479 -1.1535219,-0.01443 C 3.4538877,19.13162 2.9042439,19.276555 2.6941956,19.122798 2.4835694,18.912176 2.3567792,18.628609 2.3155777,18.266005 2.4930708,17.69254 2.9078986,17.139419 2.9968178,16.575353 3.0374257,16.090393 3.2182791,15.623696 3.4396265,15.208285 3.8074978,14.679952 4.1408518,14.215121 4.6055944,13.790128 5.0066817,13.495161 5.7515695,13.139076 6.1383831,12.968056 6.5227122,12.79984 6.9030949,12.36037 7.2866657,12.074583 7.6254992,11.849966 8.0388102,11.945261 8.3845099,12.00521 l -0.1021858,0.106118 c -0.3900953,0.390124 -0.3901106,1.031323 0,1.421433 0.3901084,0.390124 1.0332793,0.390134 1.423399,0 0.9835899,-0.986922 1.9513079,-1.998783 2.9332619,-3.016452 0.03104,0.664102 0.08088,1.377827 0.227298,2.089573 -0.683159,0.381125 -1.352015,1.085531 -1.877994,1.996556 -1.0029833,1.737227 -0.244985,3.916478 -0.244985,3.916478 0.0552,0.168471 0.231973,0.264896 0.403504,0.220092 0,0 1.037795,-0.269548 1.965771,-1.111599 0.136429,-0.124603 0.146387,-0.33607 0.02227,-0.472939 -0.124603,-0.13643 -0.33607,-0.14639 -0.472938,-0.02227 -0.640285,0.581008 -1.103714,0.688061 -1.353965,0.770327 -0.125135,-0.508339 -0.398336,-1.819623 0.262016,-2.963395 0.429564,-0.744023 0.976259,-1.324472 1.469251,-1.652007 0.07455,0.243036 0.163322,0.483256 0.269876,0.719232 -0.509272,0.549402 -0.549287,1.419656 -0.246294,2.138109 v 1.1e-5 c 0.178634,0.300148 0.425845,0.55508 0.606565,0.727747 8.72e-4,3e-6 0.0018,3e-6 0.0027,0 0.06927,0.06604 0.2168,0.273489 0.250224,0.349137 0.178366,0.403431 0.52247,1.154085 0.893474,1.658557 0.435558,0.537489 1.04376,0.948199 1.577332,1.319904 0.548101,0.33661 1.055345,0.470108 1.653972,0.55678 0.250196,0.03575 0.756886,0.262472 1.032342,0.428398 0.232976,0.140369 0.491634,0.291099 0.829278,0.252843 0.480817,-0.05463 0.921161,-0.238613 1.252434,-0.569884 0.344374,-0.435039 0.204036,-1.023144 0.290183,-1.455495 0.07233,-0.249217 0.163626,-0.610468 0.155899,-0.975351 -0.0056,-0.257193 -0.08254,-0.49421 -0.208302,-0.705478 C 21.141274,17.329893 20.77059,17.075159 20.54276,16.65475 20.36439,16.251309 20.01963,15.500011 19.648633,14.99554 l -0.0027,-0.002 c -0.119887,-0.162656 -0.286819,-0.32888 -0.424464,-0.449355 0.733771,-0.26706 1.169898,-0.622945 1.169898,-0.622945 0.121498,-0.09973 0.157441,-0.270456 0.08646,-0.410709 0,0 -1.006139,-2.07538 -2.943744,-2.594605 -0.660255,-0.176993 -1.30683,-0.246561 -1.883892,-0.218128 -0.185586,0.0085 -0.328922,0.166204 -0.319658,0.351753 0.0089,0.185328 0.166449,0.328277 0.351756,0.319007 0.498207,-0.02458 1.082532,0.03603 1.678864,0.195855 1.321018,0.35401 2.084378,1.567639 2.319491,1.965771 -0.157698,0.113714 -0.415844,0.340622 -1.09981,0.510273 C 18.043353,13.622641 17.44314,13.243049 16.756555,13.165953 16.138161,13.089822 15.622182,12.948277 15.050179,12.736246 14.621175,11.367127 14.808242,10.061675 14.861533,8.2492488 16.738184,6.3806604 18.744257,4.5354076 21.077195,2.824877 21.591842,2.4394217 21.505321,1.8635243 21.148594,1.4754967 20.76092,1.0878984 20.16137,1.0196184 19.730435,1.3248374 18.067154,2.5028588 16.52046,3.7632528 15.063285,5.0899983 14.119304,5.178542 13.259336,5.26235 12.34946,5.3552904 12.470389,4.8242602 12.395018,4.2898593 12.171945,3.8126744 11.87318,3.1735746 11.331713,2.6232433 10.669286,2.1809746 9.3889132,1.3480389 7.3432734,1.0323964 5.9425813,1.217905 5.7664674,1.2613232 5.6567785,1.4368844 5.6949769,1.614203 c 0,0 0.180659,0.8575225 0.6858253,1.8170775 0.085949,0.1644232 0.2890649,0.2278268 0.4532866,0.14149 C 6.9982697,3.4865879 7.0613579,3.2835289 6.9749222,3.1194813 6.6265414,2.4577435 6.5700507,2.124641 6.5046043,1.8716339 7.7608809,1.695935 9.2337309,2.0277363 10.297933,2.7382484 c 0.586422,0.391529 1.036349,0.8703541 1.264879,1.3592069 0.204506,0.4374627 0.247342,0.8711892 0.06747,1.3316925 z M 8.7879268,12.5532 C 10.495654,10.828624 12.203249,8.7324036 13.83319,7.1695138 c 0.232531,-0.2203479 0.05335,-0.6101195 -0.265291,-0.5770913 -1.119856,0.107076 -2.042834,0.1906164 -3.052479,0.1906164 -0.18919,0 -0.33407,-0.1448706 -0.334069,-0.3340684 2e-6,-0.1891978 0.144861,-0.3366911 0.334069,-0.3366911 1.596016,-0.016769 3.240794,-0.2243254 4.711694,-0.3636087 0.07282,-0.00697 0.141377,-0.03757 0.1952,-0.087122 1.463115,-1.338524 3.020545,-2.6048174 4.694008,-3.7900528 0.252428,-0.1788312 0.744668,0.1070861 0.516494,0.446756 l -1.5e-5,1.375e-4 C 16.0384,5.6964452 12.714652,9.5634509 9.2302199,13.059694 c -0.1338356,0.131701 -0.3391987,0.133096 -0.4722827,0 C 8.5923786,12.892998 8.6522796,12.704451 8.7879268,12.5532 Z M 10.229154,5.4841701 C 9.8152953,5.6092496 9.5105836,5.9967143 9.5105766,6.4490443 9.5105729,6.9655928 9.9077655,7.3965391 10.411254,7.4492875 10.120736,7.6271797 9.8031733,7.8528835 9.5872158,8.1279085 9.3062663,8.524287 8.9189914,8.8393462 8.5201582,9.0881945 8.1446157,9.2647787 7.6501114,9.4851937 7.2795151,9.6154987 6.5677285,9.8406358 5.7937378,9.7580586 5.0615531,9.6803478 c -0.2330386,-0.025355 -0.4776377,0.0051 -0.688444,0.066814 v -0.00269 C 4.1639159,9.8055753 3.8537165,9.8776584 3.6178506,9.8807271 3.1968786,9.8523539 2.9067986,9.5537185 2.6280846,9.2885705 2.3257732,9.0090851 1.7462001,8.8585031 1.676971,8.6027457 1.5937232,8.0126451 1.7120417,7.7033377 2.1223957,7.4020594 2.6833853,7.0719887 3.0480907,6.7572616 3.4226461,6.2780141 3.5951286,6.0582934 4.0340837,5.7017611 4.2768182,5.5876047 4.6517291,5.4113224 5.146421,5.1907062 5.5168077,5.0602971 6.2289085,4.8350963 7.00297,4.918351 7.735422,4.9961055 c 0.2330416,0.025355 0.4769848,-0.0051 0.6869892,-0.0655 0.7513542,-0.2516789 1.2962397,-0.063132 1.8067428,0.5535646 z M 6.5432515,5.5968376 C 6.3868877,5.5958315 6.2308657,5.6011305 6.0866896,5.6171616 5.5892363,5.6958585 5.1109881,5.9279715 4.6803203,6.1300579 4.3736322,6.2743449 4.0694026,6.5259335 3.8654548,6.7857487 3.6778032,7.0700703 3.3855331,7.2562497 3.1128157,7.4368584 2.9507266,7.5265624 2.8920654,7.7306947 2.9818063,7.8927635 3.0714936,8.0544669 3.2751395,8.1130712 3.4370575,8.0237729 3.8554068,7.7753337 4.1157453,7.5543788 4.3927589,7.1990809 4.5018613,7.0601029 4.8169338,6.8073271 4.9672276,6.7366224 5.3703238,6.5445638 5.7356433,6.3854764 6.1607093,6.2859558 6.4946322,6.2489438 7.0798235,6.2932951 7.3764609,6.3252596 7.5620131,6.3462874 7.7289943,6.2116897 7.7478675,6.0259063 7.7673095,5.841088 7.6327648,5.6756989 7.44786,5.6571188 7.2313887,5.6337764 6.8872522,5.5992692 6.5432515,5.5968544 Z m 7.6220295,3.3518323 c -0.08839,1.9349031 -0.218564,3.4914571 0.833864,5.3143301 0.09459,0.16382 0.04004,0.36327 -0.123804,0.45787 -0.191019,0.08099 -0.382305,-0.01962 -0.478179,-0.155898 C 13.396723,13.21258 13.351056,11.412379 13.282287,9.8519683 Z M 5.0661445,14.349539 c -0.1484424,0.109696 -0.1803538,0.31871 -0.071403,0.467696 0.1096454,0.150321 0.3207001,0.182654 0.4703197,0.07205 0.1692327,-0.124349 0.5306765,-0.299675 0.7153027,-0.381232 0.1398987,-0.06173 0.2333059,-0.132244 0.3294845,-0.233193 0.2125465,-0.249442 0.382563,-0.242088 0.6681394,-0.224692 0.2923184,0.05172 0.6203413,0.04764 0.6884456,-0.190615 0.05192,-0.177808 -0.05014,-0.364042 -0.2279533,-0.415948 C 7.5061422,13.405075 7.3911153,13.398315 7.2428366,13.383995 6.9215971,13.327725 6.6334667,13.367935 6.4155228,13.485477 6.2443265,13.58739 6.1144629,13.715665 6.024465,13.809719 5.9129829,13.927439 5.3381067,14.1535 5.0661439,14.349533 Z m 8.7814385,0.586193 c 0.278757,0.469918 0.890098,0.637986 1.364446,0.364202 0.477786,-0.275849 0.642029,-0.896484 0.366167,-1.374269 -0.07081,-0.122638 -0.135787,-0.24313 -0.195202,-0.362891 0.423996,0.131147 0.842886,0.206216 1.27733,0.266604 h -10e-7 c 1.003026,0.174169 2.208949,1.20018 2.445914,1.562266 0.294978,0.401101 0.651051,1.145976 0.822073,1.53279 0.231557,0.446785 0.60786,0.764447 0.893473,1.148282 0.187238,0.378382 0.07485,0.779338 -0.01441,1.153522 -0.10962,0.409569 -0.01815,0.774604 -0.119216,1.168591 -0.210619,0.210622 -0.491566,0.335436 -0.854169,0.376648 -0.02036,0.0027 -0.224941,-0.05347 -0.40809,-0.163762 -0.334107,-0.201238 -0.830318,-0.449768 -1.285185,-0.514859 -0.483182,-0.04492 -0.949388,-0.22233 -1.363792,-0.442805 -0.528484,-0.368482 -0.993884,-0.705432 -1.421432,-1.16859 -0.294972,-0.401088 -0.651051,-1.145976 -0.822075,-1.53279 -0.09456,-0.214019 -0.24151,-0.41023 -0.400882,-0.562023 h 0.0027 c -0.15749,-0.150474 -0.37452,-0.38346 -0.495209,-0.58626 -0.187322,-0.377055 -0.158682,-0.819048 0.01375,-1.150249 z m 2.916891,0.225979 c -0.104562,0.151732 -0.06713,0.359412 0.08385,0.465077 0.401581,0.279026 0.75424,0.538191 1.082124,0.886269 0.109493,0.148656 0.318542,0.180863 0.467698,0.07205 0.149071,-0.109531 0.181309,-0.319077 0.07205,-0.468352 -0.340246,-0.425694 -0.819035,-0.745948 -1.240644,-1.039546 -0.193528,-0.113499 -0.354985,-0.05624 -0.465076,0.0845 z M 4.4261662,15.584212 c -0.1623138,0.0057 -0.2972572,0.126793 -0.3203146,0.287561 -0.00925,0.219728 -0.1198316,0.412487 -0.208301,0.603946 -0.095724,0.158627 -0.04469,0.364825 0.1139754,0.460493 0.1586312,0.09573 0.3648295,0.0447 0.4604931,-0.113981 0.1280278,-0.290371 0.2499317,-0.532036 0.2973846,-0.853514 0.027669,-0.184369 -0.1003287,-0.355915 -0.284942,-0.381888 v 6.72e-4 c -0.019318,-0.0027 -0.038807,-0.0039 -0.058298,-0.0033 z M 18.873698,17.67182 c -0.12739,0.133505 -0.122993,0.344838 0.0099,0.472935 0.119443,0.114082 0.284597,0.29483 0.371407,0.440845 0.01748,0.02941 0.07614,0.232601 0.07664,0.254807 0.0035,0.165926 -0.04865,0.412283 -0.09628,0.576434 -0.05197,0.177614 0.04975,0.363759 0.227298,0.415952 0.177615,0.05197 0.363758,-0.04975 0.415949,-0.227301 0.05709,-0.196676 0.130096,-0.482725 0.123804,-0.78015 -0.0048,-0.221673 -0.06277,-0.40364 -0.17031,-0.584295 -0.144902,-0.243717 -0.340261,-0.442903 -0.482763,-0.579053 -0.128349,-0.119495 -0.340722,-0.119077 -0.47556,0.0099 z"
     sodipodi:nodetypes="cccccccccccccccccccccccsccccccccccccccccccccccccccccscccsccccccscccccccccccccccccccccccccccccccccccccscccccccssccccccccccccccccccccccccccccccccccccccccccccccsccccccccccccccccccccccccccccccccccccccccccccccccccccccccccccccccccccccc" />
</svg>
